<mxfile host="Electron" agent="Mozilla/5.0 (Windows NT 10.0; Win64; x64) AppleWebKit/537.36 (KHTML, like Gecko) draw.io/24.7.5 Chrome/126.0.6478.183 Electron/31.3.0 Safari/537.36" version="24.7.5">
  <diagram name="PÃ¡gina-1" id="uxtp7OwbEEh5XVDx35f7">
    <mxGraphModel dx="1120" dy="532" grid="1" gridSize="10" guides="1" tooltips="1" connect="1" arrows="1" fold="1" page="1" pageScale="1" pageWidth="1169" pageHeight="827" math="0" shadow="0">
      <root>
        <mxCell id="0" />
        <mxCell id="1" parent="0" />
        <mxCell id="GmEXVTm8ZbkWj2oeB6Sz-3" value="" style="edgeStyle=orthogonalEdgeStyle;rounded=0;orthogonalLoop=1;jettySize=auto;html=1;" edge="1" parent="1" source="GmEXVTm8ZbkWj2oeB6Sz-1" target="GmEXVTm8ZbkWj2oeB6Sz-2">
          <mxGeometry relative="1" as="geometry" />
        </mxCell>
        <mxCell id="GmEXVTm8ZbkWj2oeB6Sz-1" value="descuento segun nota" style="ellipse;whiteSpace=wrap;html=1;" vertex="1" parent="1">
          <mxGeometry x="840" y="10" width="220" height="80" as="geometry" />
        </mxCell>
        <mxCell id="GmEXVTm8ZbkWj2oeB6Sz-5" value="" style="edgeStyle=orthogonalEdgeStyle;rounded=0;orthogonalLoop=1;jettySize=auto;html=1;" edge="1" parent="1" source="GmEXVTm8ZbkWj2oeB6Sz-2" target="GmEXVTm8ZbkWj2oeB6Sz-4">
          <mxGeometry relative="1" as="geometry" />
        </mxCell>
        <mxCell id="GmEXVTm8ZbkWj2oeB6Sz-2" value="definir variables&amp;nbsp;" style="rounded=0;whiteSpace=wrap;html=1;" vertex="1" parent="1">
          <mxGeometry x="790" y="120" width="320" height="40" as="geometry" />
        </mxCell>
        <mxCell id="GmEXVTm8ZbkWj2oeB6Sz-7" value="" style="edgeStyle=orthogonalEdgeStyle;rounded=0;orthogonalLoop=1;jettySize=auto;html=1;" edge="1" parent="1" source="GmEXVTm8ZbkWj2oeB6Sz-4" target="GmEXVTm8ZbkWj2oeB6Sz-6">
          <mxGeometry relative="1" as="geometry" />
        </mxCell>
        <mxCell id="GmEXVTm8ZbkWj2oeB6Sz-4" value="ingresar datos" style="shape=parallelogram;perimeter=parallelogramPerimeter;whiteSpace=wrap;html=1;fixedSize=1;" vertex="1" parent="1">
          <mxGeometry x="810" y="190" width="280" height="40" as="geometry" />
        </mxCell>
        <mxCell id="GmEXVTm8ZbkWj2oeB6Sz-11" value="" style="edgeStyle=orthogonalEdgeStyle;rounded=0;orthogonalLoop=1;jettySize=auto;html=1;" edge="1" parent="1" source="GmEXVTm8ZbkWj2oeB6Sz-6" target="GmEXVTm8ZbkWj2oeB6Sz-8">
          <mxGeometry relative="1" as="geometry" />
        </mxCell>
        <mxCell id="GmEXVTm8ZbkWj2oeB6Sz-6" value="variable&amp;nbsp;" style="shape=parallelogram;perimeter=parallelogramPerimeter;whiteSpace=wrap;html=1;fixedSize=1;" vertex="1" parent="1">
          <mxGeometry x="875" y="250" width="150" height="30" as="geometry" />
        </mxCell>
        <mxCell id="GmEXVTm8ZbkWj2oeB6Sz-10" value="" style="edgeStyle=orthogonalEdgeStyle;rounded=0;orthogonalLoop=1;jettySize=auto;html=1;" edge="1" parent="1" source="GmEXVTm8ZbkWj2oeB6Sz-8">
          <mxGeometry relative="1" as="geometry">
            <mxPoint x="730" y="350" as="targetPoint" />
            <Array as="points">
              <mxPoint x="730" y="335" />
            </Array>
          </mxGeometry>
        </mxCell>
        <mxCell id="GmEXVTm8ZbkWj2oeB6Sz-43" style="edgeStyle=orthogonalEdgeStyle;rounded=0;orthogonalLoop=1;jettySize=auto;html=1;exitX=1;exitY=0.5;exitDx=0;exitDy=0;" edge="1" parent="1" source="GmEXVTm8ZbkWj2oeB6Sz-8">
          <mxGeometry relative="1" as="geometry">
            <mxPoint x="380" y="782" as="targetPoint" />
            <Array as="points">
              <mxPoint x="1045" y="710" />
              <mxPoint x="380" y="710" />
            </Array>
          </mxGeometry>
        </mxCell>
        <mxCell id="GmEXVTm8ZbkWj2oeB6Sz-8" value="monto &amp;lt;500" style="rhombus;whiteSpace=wrap;html=1;" vertex="1" parent="1">
          <mxGeometry x="855" y="315" width="190" height="40" as="geometry" />
        </mxCell>
        <mxCell id="GmEXVTm8ZbkWj2oeB6Sz-13" value="" style="edgeStyle=orthogonalEdgeStyle;rounded=0;orthogonalLoop=1;jettySize=auto;html=1;" edge="1" parent="1" source="GmEXVTm8ZbkWj2oeB6Sz-9" target="GmEXVTm8ZbkWj2oeB6Sz-12">
          <mxGeometry relative="1" as="geometry">
            <Array as="points">
              <mxPoint x="840" y="410" />
              <mxPoint x="840" y="410" />
            </Array>
          </mxGeometry>
        </mxCell>
        <mxCell id="GmEXVTm8ZbkWj2oeB6Sz-18" value="" style="edgeStyle=orthogonalEdgeStyle;rounded=0;orthogonalLoop=1;jettySize=auto;html=1;entryX=0.5;entryY=0;entryDx=0;entryDy=0;" edge="1" parent="1" source="GmEXVTm8ZbkWj2oeB6Sz-9" target="GmEXVTm8ZbkWj2oeB6Sz-17">
          <mxGeometry relative="1" as="geometry">
            <Array as="points">
              <mxPoint x="480" y="375" />
            </Array>
          </mxGeometry>
        </mxCell>
        <mxCell id="GmEXVTm8ZbkWj2oeB6Sz-9" value="monto &amp;gt;500&amp;lt;1000" style="rhombus;whiteSpace=wrap;html=1;" vertex="1" parent="1">
          <mxGeometry x="630" y="350" width="200" height="50" as="geometry" />
        </mxCell>
        <mxCell id="GmEXVTm8ZbkWj2oeB6Sz-16" value="" style="edgeStyle=orthogonalEdgeStyle;rounded=0;orthogonalLoop=1;jettySize=auto;html=1;" edge="1" parent="1" source="GmEXVTm8ZbkWj2oeB6Sz-12" target="GmEXVTm8ZbkWj2oeB6Sz-14">
          <mxGeometry relative="1" as="geometry" />
        </mxCell>
        <mxCell id="GmEXVTm8ZbkWj2oeB6Sz-12" value="proceso" style="rounded=0;whiteSpace=wrap;html=1;" vertex="1" parent="1">
          <mxGeometry x="770" y="414" width="140" height="20" as="geometry" />
        </mxCell>
        <mxCell id="GmEXVTm8ZbkWj2oeB6Sz-42" style="edgeStyle=orthogonalEdgeStyle;rounded=0;orthogonalLoop=1;jettySize=auto;html=1;" edge="1" parent="1">
          <mxGeometry relative="1" as="geometry">
            <mxPoint x="381" y="780" as="targetPoint" />
            <mxPoint x="841" y="490" as="sourcePoint" />
            <Array as="points">
              <mxPoint x="841" y="710" />
              <mxPoint x="382" y="710" />
            </Array>
          </mxGeometry>
        </mxCell>
        <mxCell id="GmEXVTm8ZbkWj2oeB6Sz-14" value="salida" style="shape=parallelogram;perimeter=parallelogramPerimeter;whiteSpace=wrap;html=1;fixedSize=1;" vertex="1" parent="1">
          <mxGeometry x="760" y="470" width="160" height="20" as="geometry" />
        </mxCell>
        <mxCell id="GmEXVTm8ZbkWj2oeB6Sz-20" value="" style="edgeStyle=orthogonalEdgeStyle;rounded=0;orthogonalLoop=1;jettySize=auto;html=1;" edge="1" parent="1" source="GmEXVTm8ZbkWj2oeB6Sz-17" target="GmEXVTm8ZbkWj2oeB6Sz-19">
          <mxGeometry relative="1" as="geometry">
            <Array as="points">
              <mxPoint x="630" y="410" />
            </Array>
          </mxGeometry>
        </mxCell>
        <mxCell id="GmEXVTm8ZbkWj2oeB6Sz-24" value="" style="edgeStyle=orthogonalEdgeStyle;rounded=0;orthogonalLoop=1;jettySize=auto;html=1;" edge="1" parent="1" source="GmEXVTm8ZbkWj2oeB6Sz-17" target="GmEXVTm8ZbkWj2oeB6Sz-23">
          <mxGeometry relative="1" as="geometry">
            <Array as="points">
              <mxPoint x="275" y="410" />
            </Array>
          </mxGeometry>
        </mxCell>
        <mxCell id="GmEXVTm8ZbkWj2oeB6Sz-17" value="monto &amp;gt;1000 &amp;lt; 7000&amp;nbsp;" style="rhombus;whiteSpace=wrap;html=1;" vertex="1" parent="1">
          <mxGeometry x="375" y="384" width="210" height="50" as="geometry" />
        </mxCell>
        <mxCell id="GmEXVTm8ZbkWj2oeB6Sz-22" value="" style="edgeStyle=orthogonalEdgeStyle;rounded=0;orthogonalLoop=1;jettySize=auto;html=1;" edge="1" parent="1" source="GmEXVTm8ZbkWj2oeB6Sz-19" target="GmEXVTm8ZbkWj2oeB6Sz-21">
          <mxGeometry relative="1" as="geometry">
            <Array as="points">
              <mxPoint x="630" y="490" />
              <mxPoint x="630" y="490" />
            </Array>
          </mxGeometry>
        </mxCell>
        <mxCell id="GmEXVTm8ZbkWj2oeB6Sz-19" value="proceso" style="rounded=0;whiteSpace=wrap;html=1;" vertex="1" parent="1">
          <mxGeometry x="560" y="434" width="140" height="20" as="geometry" />
        </mxCell>
        <mxCell id="GmEXVTm8ZbkWj2oeB6Sz-41" style="edgeStyle=orthogonalEdgeStyle;rounded=0;orthogonalLoop=1;jettySize=auto;html=1;" edge="1" parent="1" source="GmEXVTm8ZbkWj2oeB6Sz-21">
          <mxGeometry relative="1" as="geometry">
            <mxPoint x="380" y="720" as="targetPoint" />
            <Array as="points">
              <mxPoint x="640" y="710" />
              <mxPoint x="381" y="710" />
            </Array>
          </mxGeometry>
        </mxCell>
        <mxCell id="GmEXVTm8ZbkWj2oeB6Sz-21" value="salida" style="shape=parallelogram;perimeter=parallelogramPerimeter;whiteSpace=wrap;html=1;fixedSize=1;" vertex="1" parent="1">
          <mxGeometry x="560" y="490" width="160" height="20" as="geometry" />
        </mxCell>
        <mxCell id="GmEXVTm8ZbkWj2oeB6Sz-33" style="edgeStyle=orthogonalEdgeStyle;rounded=0;orthogonalLoop=1;jettySize=auto;html=1;entryX=0.5;entryY=0;entryDx=0;entryDy=0;exitX=0;exitY=0.5;exitDx=0;exitDy=0;" edge="1" parent="1" source="GmEXVTm8ZbkWj2oeB6Sz-23" target="GmEXVTm8ZbkWj2oeB6Sz-32">
          <mxGeometry relative="1" as="geometry" />
        </mxCell>
        <mxCell id="GmEXVTm8ZbkWj2oeB6Sz-23" value="monto &amp;gt; 7000 &amp;lt; 1500" style="rhombus;whiteSpace=wrap;html=1;" vertex="1" parent="1">
          <mxGeometry x="175" y="430" width="200" height="60" as="geometry" />
        </mxCell>
        <mxCell id="GmEXVTm8ZbkWj2oeB6Sz-31" value="" style="edgeStyle=orthogonalEdgeStyle;rounded=0;orthogonalLoop=1;jettySize=auto;html=1;" edge="1" parent="1" source="GmEXVTm8ZbkWj2oeB6Sz-25" target="GmEXVTm8ZbkWj2oeB6Sz-29">
          <mxGeometry relative="1" as="geometry" />
        </mxCell>
        <mxCell id="GmEXVTm8ZbkWj2oeB6Sz-25" value="proceso" style="rounded=0;whiteSpace=wrap;html=1;" vertex="1" parent="1">
          <mxGeometry x="350" y="480" width="140" height="20" as="geometry" />
        </mxCell>
        <mxCell id="GmEXVTm8ZbkWj2oeB6Sz-28" style="edgeStyle=orthogonalEdgeStyle;rounded=0;orthogonalLoop=1;jettySize=auto;html=1;exitX=1;exitY=0.5;exitDx=0;exitDy=0;entryX=0.45;entryY=0.1;entryDx=0;entryDy=0;entryPerimeter=0;" edge="1" parent="1" source="GmEXVTm8ZbkWj2oeB6Sz-23" target="GmEXVTm8ZbkWj2oeB6Sz-25">
          <mxGeometry relative="1" as="geometry" />
        </mxCell>
        <mxCell id="GmEXVTm8ZbkWj2oeB6Sz-40" style="edgeStyle=orthogonalEdgeStyle;rounded=0;orthogonalLoop=1;jettySize=auto;html=1;" edge="1" parent="1" source="GmEXVTm8ZbkWj2oeB6Sz-29">
          <mxGeometry relative="1" as="geometry">
            <mxPoint x="380" y="720" as="targetPoint" />
            <Array as="points">
              <mxPoint x="420" y="710" />
              <mxPoint x="381" y="710" />
            </Array>
          </mxGeometry>
        </mxCell>
        <mxCell id="GmEXVTm8ZbkWj2oeB6Sz-29" value="salida" style="shape=parallelogram;perimeter=parallelogramPerimeter;whiteSpace=wrap;html=1;fixedSize=1;" vertex="1" parent="1">
          <mxGeometry x="340" y="530" width="160" height="20" as="geometry" />
        </mxCell>
        <mxCell id="GmEXVTm8ZbkWj2oeB6Sz-35" style="edgeStyle=orthogonalEdgeStyle;rounded=0;orthogonalLoop=1;jettySize=auto;html=1;entryX=0.5;entryY=0;entryDx=0;entryDy=0;exitX=1;exitY=0.5;exitDx=0;exitDy=0;" edge="1" parent="1" source="GmEXVTm8ZbkWj2oeB6Sz-32" target="GmEXVTm8ZbkWj2oeB6Sz-34">
          <mxGeometry relative="1" as="geometry" />
        </mxCell>
        <mxCell id="GmEXVTm8ZbkWj2oeB6Sz-38" style="edgeStyle=orthogonalEdgeStyle;rounded=0;orthogonalLoop=1;jettySize=auto;html=1;" edge="1" parent="1" source="GmEXVTm8ZbkWj2oeB6Sz-32">
          <mxGeometry relative="1" as="geometry">
            <mxPoint x="380" y="783" as="targetPoint" />
            <Array as="points">
              <mxPoint x="115" y="710" />
              <mxPoint x="381" y="710" />
            </Array>
          </mxGeometry>
        </mxCell>
        <mxCell id="GmEXVTm8ZbkWj2oeB6Sz-32" value="monto &amp;gt; 1500" style="rhombus;whiteSpace=wrap;html=1;" vertex="1" parent="1">
          <mxGeometry x="30" y="515" width="170" height="50" as="geometry" />
        </mxCell>
        <mxCell id="GmEXVTm8ZbkWj2oeB6Sz-37" value="" style="edgeStyle=orthogonalEdgeStyle;rounded=0;orthogonalLoop=1;jettySize=auto;html=1;" edge="1" parent="1" source="GmEXVTm8ZbkWj2oeB6Sz-34" target="GmEXVTm8ZbkWj2oeB6Sz-36">
          <mxGeometry relative="1" as="geometry" />
        </mxCell>
        <mxCell id="GmEXVTm8ZbkWj2oeB6Sz-34" value="proceso" style="rounded=0;whiteSpace=wrap;html=1;" vertex="1" parent="1">
          <mxGeometry x="170" y="590" width="140" height="20" as="geometry" />
        </mxCell>
        <mxCell id="GmEXVTm8ZbkWj2oeB6Sz-39" style="edgeStyle=orthogonalEdgeStyle;rounded=0;orthogonalLoop=1;jettySize=auto;html=1;" edge="1" parent="1" source="GmEXVTm8ZbkWj2oeB6Sz-36">
          <mxGeometry relative="1" as="geometry">
            <mxPoint x="380" y="730" as="targetPoint" />
            <Array as="points">
              <mxPoint x="240" y="710" />
              <mxPoint x="381" y="710" />
            </Array>
          </mxGeometry>
        </mxCell>
        <mxCell id="GmEXVTm8ZbkWj2oeB6Sz-36" value="salida" style="shape=parallelogram;perimeter=parallelogramPerimeter;whiteSpace=wrap;html=1;fixedSize=1;" vertex="1" parent="1">
          <mxGeometry x="160" y="650" width="160" height="20" as="geometry" />
        </mxCell>
        <mxCell id="GmEXVTm8ZbkWj2oeB6Sz-44" value="fin proceso&amp;nbsp;" style="ellipse;whiteSpace=wrap;html=1;" vertex="1" parent="1">
          <mxGeometry x="250" y="780" width="260" height="80" as="geometry" />
        </mxCell>
      </root>
    </mxGraphModel>
  </diagram>
</mxfile>
